# Blender v2.90.0 OBJ File: 'shapeMatchRunnerPrototype.blend'
# www.blender.org
mtllib houseAndBuildingPlatform3.mtl
o Plane.006
v -4.177872 -0.083989 6.041806
v 4.480480 -0.083989 6.041806
v -4.177872 -0.083989 -6.041806
v 4.480480 -0.083989 -6.041806
v -4.177872 0.046339 -6.041806
v -4.177872 0.046339 6.041806
v 4.480480 0.046339 6.041806
v 4.480480 0.046339 -6.041806
v -3.716950 -0.083989 6.041806
v -3.716950 -0.083989 -6.041806
v -3.716950 0.046339 6.041806
v -3.716950 0.046339 -6.041806
v -4.177872 -0.083989 -4.027870
v -4.177872 -0.083989 -2.013935
v -4.177872 -0.083989 0.000000
v -4.177872 -0.083989 2.013935
v -4.177872 -0.083989 4.027870
v 4.480480 -0.083989 4.027870
v 4.480480 -0.083989 2.013935
v 4.480480 -0.083989 0.000000
v 4.480480 -0.083989 -2.013935
v 4.480480 -0.083989 -4.027870
v -4.177872 0.046339 -4.027870
v -4.177872 0.046339 -2.013935
v -4.177872 0.046339 0.000000
v -4.177872 0.046339 2.013935
v -4.177872 0.046339 4.027870
v 4.480480 0.046339 4.027870
v 4.480480 0.046339 2.013935
v 4.480480 0.046339 0.000000
v 4.480480 0.046339 -2.013935
v 4.480480 0.046339 -4.027870
v -3.716950 0.046339 4.027870
v -3.716950 0.046339 2.013935
v -3.716950 0.046339 0.000000
v -3.716950 0.046339 -2.013935
v -3.716950 0.046339 -4.027870
v -3.716950 -0.083989 -4.027870
v -3.716950 -0.083989 -2.013935
v -3.716950 -0.083989 0.000000
v -3.716950 -0.083989 2.013935
v -3.716950 -0.083989 4.027870
v -3.751083 0.161528 -6.041806
v -3.751083 0.161528 6.041806
v -3.751083 0.161528 -4.027870
v -3.751083 0.161528 4.027870
v -3.751083 0.161528 2.013935
v -3.751083 0.161528 0.000000
v -3.751083 0.161528 -2.013935
v -4.088174 0.161528 4.027870
v -4.177872 0.071831 4.027870
v -4.088174 0.161528 6.041806
v -4.177872 0.071831 6.041806
v -4.177872 0.071831 -6.041806
v -4.088174 0.161528 -6.041806
v -4.177872 0.071831 -4.027870
v -4.088174 0.161528 -4.027870
v -4.177872 0.071831 -2.013935
v -4.088174 0.161528 -2.013935
v -4.177872 0.071831 0.000000
v -4.088174 0.161528 0.000000
v -4.177872 0.071831 2.013935
v -4.088174 0.161528 2.013935
v 4.480480 -0.083989 -5.887670
v 4.480480 0.046339 -5.887670
v -3.716950 0.046339 -5.887670
v -4.177872 -0.083989 -5.887670
v -4.177872 0.046339 -5.887670
v -3.716950 -0.083989 -5.887670
v -3.751083 0.161528 -5.887670
v -4.177872 0.071831 -5.887670
v -4.088174 0.161528 -5.887670
v -4.177872 -0.083989 5.854242
v -4.177872 0.046339 5.854242
v -3.716950 -0.083989 5.854242
v 4.480480 -0.083989 5.854242
v 4.480480 0.046339 5.854242
v -3.716950 0.046339 5.854242
v -3.751083 0.161528 5.854242
v -4.177872 0.071831 5.854242
v -4.088174 0.161528 5.854242
vt 0.117998 0.127219
vt 0.114274 0.120604
vt 0.433679 0.120232
vt 0.434307 0.126849
vt 0.438757 0.736550
vt 0.884885 0.736550
vt 0.884885 0.744939
vt 0.438757 0.744940
vt 0.009050 0.713296
vt 0.009050 0.708776
vt 0.034649 0.708775
vt 0.034649 0.713296
vt 0.009051 0.011119
vt 0.009052 0.000006
vt 0.034663 0.000006
vt 0.034662 0.011119
vt 0.009049 0.697667
vt 0.009041 0.500061
vt 0.034646 0.500061
vt 0.034649 0.697667
vt 0.009045 0.212489
vt 0.009045 0.208773
vt 0.034650 0.208773
vt 0.034650 0.212489
vt 0.995627 0.500035
vt 0.995627 0.666693
vt 0.983279 0.666693
vt 0.983278 0.500035
vt 0.058674 0.129207
vt 0.060124 0.127072
vt 0.068229 0.120605
vt 0.073512 0.127219
vt 0.058337 0.771939
vt 0.048536 0.678611
vt 0.072811 0.676048
vt 0.073300 0.773111
vt 0.044260 0.565014
vt 0.070481 0.564144
vt 0.043431 0.450738
vt 0.069735 0.450761
vt 0.044444 0.336426
vt 0.070671 0.337406
vt 0.049186 0.223033
vt 0.073224 0.225708
vt 0.887633 0.416126
vt 0.931420 0.416126
vt 0.931420 0.525730
vt 0.887633 0.525730
vt 0.931420 0.635334
vt 0.887633 0.635334
vt 0.887633 0.736550
vt 0.931420 0.736550
vt 0.931420 0.744938
vt 0.887633 0.744938
vt 0.084034 0.333338
vt 0.084034 0.166677
vt 0.108460 0.166677
vt 0.108460 0.333338
vt 0.451473 0.038157
vt 0.451473 0.000014
vt 0.454471 0.000014
vt 0.465022 0.007437
vt 0.465022 0.035332
vt 0.009041 0.495540
vt 0.009041 0.451514
vt 0.034646 0.451514
vt 0.034646 0.495540
vt 0.009041 0.402967
vt 0.034646 0.402967
vt 0.009041 0.354419
vt 0.034647 0.354419
vt 0.009042 0.305870
vt 0.034647 0.305870
vt 0.009043 0.257322
vt 0.034649 0.257322
vt 0.009064 0.996280
vt 0.009061 0.951459
vt 0.034660 0.951459
vt 0.034663 0.996280
vt 0.009058 0.902923
vt 0.034657 0.902923
vt 0.009055 0.854386
vt 0.034654 0.854386
vt 0.009053 0.805849
vt 0.034652 0.805849
vt 0.009051 0.757312
vt 0.034650 0.757312
vt 0.438757 0.097521
vt 0.884885 0.097521
vt 0.884885 0.196918
vt 0.438757 0.196918
vt 0.884885 0.306522
vt 0.438757 0.306522
vt 0.884885 0.416126
vt 0.438757 0.416126
vt 0.884885 0.525730
vt 0.438757 0.525730
vt 0.884885 0.635335
vt 0.438757 0.635335
vt 0.117848 0.773111
vt 0.117504 0.676048
vt 0.434544 0.673097
vt 0.434318 0.773347
vt 0.115861 0.564144
vt 0.434549 0.562132
vt 0.115335 0.450761
vt 0.434542 0.450928
vt 0.115995 0.337406
vt 0.434550 0.339744
vt 0.117795 0.225708
vt 0.434544 0.228837
vt 0.995627 0.012767
vt 0.995625 0.166693
vt 0.983274 0.166693
vt 0.983272 0.012767
vt 0.995627 0.833344
vt 0.983279 0.833344
vt 0.451434 0.000014
vt 0.451434 0.038157
vt 0.437884 0.035332
vt 0.437884 0.007437
vt 0.448435 0.000014
vt 0.995626 0.333368
vt 0.983276 0.333368
vt 0.084035 0.984464
vt 0.084035 0.833323
vt 0.108461 0.833323
vt 0.108461 0.984464
vt 0.084035 0.012769
vt 0.084035 0.000014
vt 0.108461 0.000014
vt 0.108461 0.012769
vt 0.887633 0.306521
vt 0.931420 0.306521
vt 0.887633 0.097520
vt 0.931420 0.097520
vt 0.931420 0.196917
vt 0.887633 0.196917
vt 0.084034 0.666661
vt 0.108460 0.666661
vt 0.084034 0.499999
vt 0.108460 0.499999
vt 0.979736 0.734728
vt 0.979736 0.744936
vt 0.938085 0.744936
vt 0.938085 0.734728
vt 0.979736 0.095701
vt 0.979735 0.196921
vt 0.938081 0.196921
vt 0.938081 0.095701
vt 0.979734 0.306527
vt 0.938081 0.306527
vt 0.979734 0.416132
vt 0.938081 0.416132
vt 0.979734 0.525734
vt 0.938082 0.525734
vt 0.979735 0.635335
vt 0.938084 0.635335
vt 0.995626 0.984475
vt 0.995626 0.999995
vt 0.983277 0.999995
vt 0.983278 0.984475
vt 0.979736 0.087312
vt 0.938081 0.087312
vt 0.995627 0.000005
vt 0.983272 0.000005
vt 0.009064 0.999994
vt 0.034663 0.999994
vt 0.887633 0.087312
vt 0.931420 0.087312
vt 0.084035 0.999986
vt 0.108461 0.999986
vt 0.114116 0.780911
vt 0.433597 0.781915
vt 0.438757 0.087312
vt 0.884885 0.087314
vt 0.059246 0.775392
vt 0.068005 0.780911
vn 0.0000 -1.0000 0.0000
vn 0.0000 1.0000 0.0000
vn -1.0000 0.0000 0.0000
vn 0.0000 0.0000 -1.0000
vn 0.0000 0.0000 1.0000
vn 1.0000 0.0000 0.0000
vn 0.9588 0.2841 0.0000
vn -0.7071 0.7071 0.0000
usemtl platform3
s off
f 69/1/1 10/2/1 4/3/1 64/4/1
f 66/5/2 65/6/2 8/7/2 12/8/2
f 73/9/3 1/10/3 6/11/3 74/12/3
f 10/13/4 3/14/4 5/15/4 12/16/4
f 9/17/5 2/18/5 7/19/5 11/20/5
f 64/21/6 4/22/6 8/23/6 65/24/6
f 1/10/5 9/17/5 11/20/5 6/11/5
f 4/22/4 10/13/4 12/16/4 8/23/4
f 25/25/3 26/26/3 62/27/3 60/28/3
f 67/29/1 3/30/1 10/31/1 69/32/1
f 73/33/1 17/34/1 42/35/1 75/36/1
f 17/34/1 16/37/1 41/38/1 42/35/1
f 16/37/1 15/39/1 40/40/1 41/38/1
f 15/39/1 14/41/1 39/42/1 40/40/1
f 14/41/1 13/43/1 38/44/1 39/42/1
f 61/45/2 48/46/2 49/47/2 59/48/2
f 59/48/2 49/47/2 45/49/2 57/50/2
f 72/51/2 70/52/2 43/53/2 55/54/2
f 36/55/7 37/56/7 45/57/7 49/58/7
f 12/59/4 5/60/4 54/61/4 55/62/4 43/63/4
f 76/64/6 18/65/6 28/66/6 77/67/6
f 18/65/6 19/68/6 29/69/6 28/66/6
f 19/68/6 20/70/6 30/71/6 29/69/6
f 20/70/6 21/72/6 31/73/6 30/71/6
f 21/72/6 22/74/6 32/75/6 31/73/6
f 67/76/3 13/77/3 23/78/3 68/79/3
f 13/77/3 14/80/3 24/81/3 23/78/3
f 14/80/3 15/82/3 25/83/3 24/81/3
f 15/82/3 16/84/3 26/85/3 25/83/3
f 16/84/3 17/86/3 27/87/3 26/85/3
f 78/88/2 77/89/2 28/90/2 33/91/2
f 33/91/2 28/90/2 29/92/2 34/93/2
f 34/93/2 29/92/2 30/94/2 35/95/2
f 35/95/2 30/94/2 31/96/2 36/97/2
f 36/97/2 31/96/2 32/98/2 37/99/2
f 75/100/1 42/101/1 18/102/1 76/103/1
f 42/101/1 41/104/1 19/105/1 18/102/1
f 41/104/1 40/106/1 20/107/1 19/105/1
f 40/106/1 39/108/1 21/109/1 20/107/1
f 39/108/1 38/110/1 22/111/1 21/109/1
f 68/112/3 23/113/3 56/114/3 71/115/3
f 26/26/3 27/116/3 51/117/3 62/27/3
f 6/118/5 11/119/5 44/120/5 52/121/5 53/122/5
f 24/123/3 25/25/3 60/28/3 58/124/3
f 23/113/3 24/123/3 58/124/3 56/114/3
f 78/125/7 33/126/7 46/127/7 79/128/7
f 66/129/7 12/130/7 43/131/7 70/132/7
f 63/133/2 47/134/2 48/46/2 61/45/2
f 81/135/2 79/136/2 46/137/2 50/138/2
f 33/126/7 34/139/7 47/140/7 46/127/7
f 50/138/2 46/137/2 47/134/2 63/133/2
f 34/139/7 35/141/7 48/142/7 47/140/7
f 35/141/7 36/55/7 49/58/7 48/142/7
f 80/143/8 53/144/8 52/145/8 81/146/8
f 71/147/8 56/148/8 57/149/8 72/150/8
f 56/148/8 58/151/8 59/152/8 57/149/8
f 58/151/8 60/153/8 61/154/8 59/152/8
f 60/153/8 62/155/8 63/156/8 61/154/8
f 62/155/8 51/157/8 50/158/8 63/156/8
f 74/159/3 6/160/3 53/161/3 80/162/3
f 54/163/8 71/147/8 72/150/8 55/164/8
f 37/56/7 66/129/7 70/132/7 45/57/7
f 5/165/3 68/112/3 71/115/3 54/166/3
f 3/167/3 67/76/3 68/79/3 5/168/3
f 57/50/2 45/49/2 70/52/2 72/51/2
f 13/43/1 67/29/1 69/32/1 38/44/1
f 22/74/6 64/21/6 65/24/6 32/75/6
f 37/99/2 32/98/2 65/6/2 66/5/2
f 38/110/1 69/1/1 64/4/1 22/111/1
f 27/116/3 74/159/3 80/162/3 51/117/3
f 51/157/8 80/143/8 81/146/8 50/158/8
f 52/169/2 44/170/2 79/136/2 81/135/2
f 11/171/7 78/125/7 79/128/7 44/172/7
f 9/173/1 75/100/1 76/103/1 2/174/1
f 11/175/2 7/176/2 77/89/2 78/88/2
f 2/18/6 76/64/6 77/67/6 7/19/6
f 1/177/1 73/33/1 75/36/1 9/178/1
f 17/86/3 73/9/3 74/12/3 27/87/3
