# Blender v2.90.0 OBJ File: 'shapeMatchRunnerPrototype.blend'
# www.blender.org
mtllib barrierShapeTriangle1.mtl
o barrierShapes.006_Cube.149
v 0.612597 1.611567 -0.093100
v 0.573361 1.650802 -0.093100
v 0.573361 1.611567 -0.053864
v 0.612597 0.465296 -0.093100
v 0.573361 0.465296 -0.053864
v 0.573361 0.426061 -0.093100
v 0.612597 0.465296 -0.172560
v 0.573361 0.426061 -0.172560
v 0.573361 0.465297 -0.319451
v 0.612597 1.611567 -0.172560
v 0.573361 1.611567 -0.319451
v 0.573361 1.650803 -0.172560
v -0.612597 0.465296 -0.093100
v -0.573361 0.426061 -0.093100
v -0.573361 0.465297 -0.053865
v -0.612597 1.611567 -0.093100
v -0.573361 1.611567 -0.053865
v -0.573361 1.650803 -0.093100
v -0.612597 1.611567 -0.172560
v -0.573361 1.650802 -0.172560
v -0.573361 1.611567 -0.319451
v -0.612597 0.465296 -0.172560
v -0.573361 0.465296 -0.319451
v -0.573361 0.426061 -0.172560
v 0.508150 0.677034 -0.053865
v 0.508150 0.677034 -0.319451
v 0.035000 1.496554 -0.053865
v 0.035000 1.496554 -0.319451
v 0.473150 0.616412 -0.053865
v 0.473151 0.616412 -0.319451
v -0.473150 0.616412 -0.053865
v -0.473150 0.616412 -0.319451
v -0.035000 1.496554 -0.053865
v -0.035000 1.496554 -0.319451
v -0.508150 0.677033 -0.053865
v -0.508150 0.677034 -0.319451
vt 0.938695 0.054863
vt 0.938695 0.432263
vt 0.868984 0.410802
vt 0.888943 0.399283
vt 0.888943 0.087844
vt 0.868984 0.076325
vt 0.637131 0.528506
vt 0.663292 0.528506
vt 0.663292 0.905906
vt 0.637131 0.905906
vt 0.792243 0.905740
vt 0.766082 0.905740
vt 0.766082 0.528489
vt 0.792243 0.528489
vt 0.598816 0.528506
vt 0.598816 0.905906
vt 0.572655 0.905906
vt 0.572655 0.528506
vt 0.556868 0.432263
vt 0.556867 0.054863
vt 0.934258 0.054863
vt 0.864547 0.076325
vt 0.594733 0.232044
vt 0.594734 0.255082
vt 0.864547 0.410802
vt 0.934258 0.432263
vt 0.572655 0.515593
vt 0.572655 0.515593
vt 0.559738 0.528506
vt 0.934258 0.445176
vt 0.934258 0.445176
vt 0.947176 0.432263
vt 0.637131 0.515593
vt 0.624213 0.528506
vt 0.624213 0.528506
vt 0.561305 0.041950
vt 0.548387 0.054863
vt 0.548387 0.054863
vt 0.663292 0.918819
vt 0.663292 0.918819
vt 0.676209 0.905906
vt 0.556867 0.041950
vt 0.543950 0.054863
vt 0.543950 0.054863
vt 0.598816 0.918819
vt 0.598816 0.918819
vt 0.611734 0.905906
vt 0.938695 0.445176
vt 0.938695 0.445176
vt 0.951613 0.432263
vt 0.556868 0.445176
vt 0.561305 0.054863
vt 0.938695 0.041950
vt 0.934258 0.041950
vt 0.561305 0.432263
vt 0.561305 0.445176
vt 0.624213 0.905906
vt 0.611734 0.528506
vt 0.559738 0.905906
vt 0.676210 0.528506
vt 0.572655 0.918819
vt 0.637131 0.918819
vt 0.663292 0.515593
vt 0.598816 0.515593
vt 0.727767 0.905740
vt 0.701606 0.905740
vt 0.701606 0.528488
vt 0.727767 0.528489
vt 0.884506 0.399283
vt 0.884506 0.087844
vt 0.550000 0.128076
vt 0.550000 0.155586
vt 0.577961 0.155586
vt 0.577961 0.128076
vt 0.517901 0.128076
vt 0.517901 0.155586
vt 0.545863 0.155586
vt 0.545863 0.128076
vt 0.610059 0.128076
vt 0.610059 0.155586
vt 0.612128 0.155586
vt 0.612128 0.128076
vt 0.599171 0.232044
vt 0.599171 0.255082
vt 0.582098 0.155586
vt 0.582098 0.128076
vn 0.0000 -0.0000 -1.0000
vn 0.0000 -1.0000 -0.0000
vn -1.0000 0.0000 0.0000
vn -0.0000 1.0000 0.0000
vn -0.0000 -0.0000 1.0000
vn 0.5773 0.5774 0.5774
vn 0.5773 -0.5774 0.5773
vn 0.6948 -0.6948 -0.1856
vn 0.6948 0.6948 -0.1856
vn -0.5774 -0.5773 0.5774
vn -0.5774 0.5773 0.5774
vn -0.6948 0.6948 -0.1856
vn -0.6948 -0.6948 -0.1856
vn 0.7071 0.0000 0.7071
vn 0.9661 0.0000 -0.2581
vn -0.7071 0.0000 0.7071
vn -0.9661 0.0000 -0.2581
vn 0.0000 -0.9661 -0.2581
vn -0.0000 0.9661 -0.2581
vn 0.0000 0.7071 0.7071
vn -0.0000 -0.7071 0.7071
vn -0.7071 0.7071 -0.0000
vn -0.7071 -0.7071 0.0000
vn 0.7071 -0.7071 -0.0000
vn 0.7071 0.7071 0.0000
vn 1.0000 0.0000 0.0000
vn -0.8660 -0.5000 -0.0000
vn -0.8660 0.5000 0.0000
vn 0.8660 0.5000 0.0000
vn 0.8660 -0.5000 -0.0000
usemtl barrierBack1.001
s off
f 9/1/1 23/2/1 36/3/1 32/4/1 30/5/1 26/6/1
f 8/7/2 6/8/2 14/9/2 24/10/2
f 16/11/3 19/12/3 22/13/3 13/14/3
f 12/15/4 20/16/4 18/17/4 2/18/4
f 3/19/5 17/20/5 15/21/5 35/22/5 33/23/5 27/24/5 25/25/5 5/26/5
f 1/27/6 2/28/6 3/29/6
f 4/30/7 5/31/7 6/32/7
f 7/33/8 8/34/8 9/35/8
f 10/36/9 11/37/9 12/38/9
f 13/39/10 14/40/10 15/41/10
f 16/42/11 17/43/11 18/44/11
f 19/45/12 20/46/12 21/47/12
f 22/48/13 23/49/13 24/50/13
f 3/19/14 5/26/14 4/30/14 1/51/14
f 9/1/15 11/52/15 10/36/15 7/53/15
f 15/21/16 17/20/16 16/42/16 13/54/16
f 21/55/17 23/2/17 22/48/17 19/56/17
f 23/57/18 9/35/18 8/7/18 24/10/18
f 20/16/19 12/15/19 11/58/19 21/47/19
f 17/59/20 3/29/20 2/18/20 18/17/20
f 14/9/21 6/8/21 5/60/21 15/41/21
f 19/45/22 16/61/22 18/17/22 20/16/22
f 24/10/23 14/9/23 13/39/23 22/62/23
f 7/33/24 4/63/24 6/8/24 8/7/24
f 12/15/25 2/18/25 1/27/25 10/64/25
f 4/65/26 7/66/26 10/67/26 1/68/26
f 5/26/5 25/25/5 29/69/5 31/70/5 35/22/5 15/21/5
f 29/71/4 30/72/4 32/73/4 31/74/4
f 27/75/27 28/76/27 26/77/27 25/78/27
f 33/79/2 34/80/2 28/81/2 27/82/2
f 26/6/1 28/83/1 34/84/1 36/3/1 23/2/1 21/55/1 11/52/1 9/1/1
f 30/72/28 29/71/28 25/78/28 26/77/28
f 36/85/29 35/86/29 31/74/29 32/73/29
f 35/86/30 36/85/30 34/80/30 33/79/30
o barrierShapes.005_Cube.148
v 0.567666 1.616756 -0.067524
v 0.567666 0.470486 -0.067524
v -0.579056 0.470486 -0.067525
v -0.579056 1.616757 -0.067525
v 0.567666 1.616756 -0.171310
v 0.567666 0.470486 -0.171310
v -0.579056 0.470486 -0.171311
v -0.579056 1.616757 -0.171311
vt 0.556868 0.432263
vt 0.556867 0.054863
vt 0.934258 0.054863
vt 0.934258 0.432263
vt 0.556868 0.432263
vt 0.934258 0.432263
vt 0.934258 0.054863
vt 0.556867 0.054863
vn -0.0000 0.0000 1.0000
vn 0.0000 0.0000 -1.0000
vn -0.0000 -1.0000 0.0000
vn -1.0000 0.0000 0.0000
vn 0.0000 1.0000 0.0000
vn 1.0000 0.0000 0.0000
usemtl barrierBackRed.001
s off
f 37/87/31 40/88/31 39/89/31 38/90/31
f 41/91/32 42/92/32 43/93/32 44/94/32
f 39/89/33 43/93/33 42/92/33 38/90/33
f 40/88/34 44/94/34 43/93/34 39/89/34
f 37/87/35 41/91/35 44/94/35 40/88/35
f 38/90/36 42/92/36 41/91/36 37/87/36
o barrier2_Cube.147
v 1.314072 0.153038 0.156743
v -1.289652 0.153038 0.156742
v 1.314072 0.153038 -0.156742
v -1.289652 0.153038 -0.156743
v 0.771545 0.019940 -0.025310
v 0.754615 0.032240 -0.025310
v 0.769230 0.034554 -0.040107
v 0.490121 1.702191 -0.025310
v 0.502421 1.719120 -0.025310
v 0.504736 1.704506 -0.040107
v 1.030382 0.060935 -0.025309
v 1.028067 0.075550 -0.040107
v 1.042682 0.077865 -0.025309
v 0.761258 1.760116 -0.025310
v 0.778187 1.747816 -0.025309
v 0.763572 1.745501 -0.040107
v 0.771545 0.019940 0.236754
v 0.769230 0.034554 0.251551
v 0.754615 0.032240 0.236754
v 0.502421 1.719120 0.236754
v 0.490121 1.702191 0.236754
v 0.504736 1.704506 0.251551
v 1.030382 0.060935 0.236754
v 1.042682 0.077865 0.236754
v 1.028067 0.075550 0.251551
v 0.761258 1.760116 0.236754
v 0.763572 1.745501 0.251551
v 0.778187 1.747816 0.236754
v -1.067011 0.060935 -0.025310
v -1.079311 0.077865 -0.025310
v -1.064697 0.075550 -0.040107
v -0.814817 1.747816 -0.025310
v -0.797887 1.760116 -0.025310
v -0.800202 1.745501 -0.040107
v -0.808175 0.019939 -0.025310
v -0.805860 0.034554 -0.040107
v -0.791245 0.032240 -0.025310
v -0.539051 1.719120 -0.025310
v -0.526751 1.702191 -0.025310
v -0.541366 1.704506 -0.040107
v -1.067011 0.060935 0.236754
v -1.064697 0.075550 0.251551
v -1.079311 0.077865 0.236754
v -0.797887 1.760116 0.236754
v -0.814817 1.747816 0.236754
v -0.800202 1.745501 0.251551
v -0.808175 0.019939 0.236754
v -0.791245 0.032240 0.236754
v -0.805860 0.034554 0.251551
v -0.539051 1.719120 0.236754
v -0.541366 1.704506 0.251551
v -0.526751 1.702191 0.236754
v 1.013680 0.822852 -0.023701
v 0.998816 0.822913 -0.008904
v 1.000220 0.808116 -0.023701
v -0.989260 0.822852 -0.023701
v -0.975800 0.808116 -0.023701
v -0.974396 0.822913 -0.008904
v 0.948493 1.378016 -0.023701
v 0.949776 1.363218 -0.008904
v 0.964628 1.363279 -0.023701
v -0.924074 1.378016 -0.023701
v -0.940208 1.363279 -0.023701
v -0.925356 1.363218 -0.008904
v 1.013680 0.822852 -0.081885
v 1.000220 0.808116 -0.081885
v 0.980123 0.822213 -0.101178
v 0.997595 0.845391 -0.101526
v 0.977950 0.824354 -0.101861
v 0.967899 0.853248 -0.106358
v 0.997577 0.845389 -0.101474
v -0.975800 0.808116 -0.081885
v -0.989260 0.822852 -0.081885
v -0.973175 0.845391 -0.101527
v -0.955703 0.822213 -0.101178
v -0.973157 0.845389 -0.101474
v -0.943479 0.853248 -0.106358
v -0.953530 0.824354 -0.101861
v 0.927580 1.361778 -0.101861
v 0.948871 1.342082 -0.102079
v 0.920675 1.332883 -0.106358
v 0.929640 1.363918 -0.101178
v 0.948493 1.378016 -0.081885
v 0.964628 1.363279 -0.081885
v 0.952037 1.345382 -0.100986
v -0.940208 1.363279 -0.081885
v -0.924074 1.378016 -0.081885
v -0.905221 1.363918 -0.101178
v -0.927617 1.345382 -0.100986
v -0.903160 1.361778 -0.101861
v -0.896255 1.332883 -0.106358
v -0.924451 1.342081 -0.102080
vt 0.160735 0.986184
vt 0.160735 0.921894
vt 0.217815 0.921894
vt 0.217815 0.986184
vt 0.078194 0.983234
vt 0.015761 0.983234
vt 0.015761 0.924456
vt 0.078194 0.924456
vt 0.089586 0.847917
vt 0.146666 0.847917
vt 0.146666 0.902838
vt 0.089586 0.902838
vt 0.286397 0.787285
vt 0.286397 0.846063
vt 0.229878 0.846063
vt 0.229878 0.787285
vt 0.149342 0.983234
vt 0.086909 0.983234
vt 0.086909 0.924456
vt 0.149342 0.924456
vt 0.229947 0.775554
vt 0.229947 0.711264
vt 0.287027 0.711264
vt 0.287027 0.775554
vt 0.018437 0.904849
vt 0.018437 0.780262
vt 0.075517 0.780262
vt 0.075517 0.904849
vt 0.191728 0.854112
vt 0.191728 0.721935
vt 0.219491 0.770071
vt 0.219491 0.902248
vt 0.338649 0.663733
vt 0.313324 0.681316
vt 0.184561 0.674018
vt 0.209885 0.656436
vt 0.018437 0.721150
vt 0.075517 0.721150
vt 0.075517 0.776071
vt 0.018437 0.776071
vt 0.157122 0.902248
vt 0.157122 0.770071
vt 0.184885 0.721935
vt 0.184885 0.854112
vt 0.089586 0.843726
vt 0.089586 0.719140
vt 0.146666 0.719140
vt 0.146666 0.843726
vt 0.444979 0.054096
vt 0.368451 0.064292
vt 0.240187 0.026411
vt 0.316714 0.016215
vt 0.088097 0.646649
vt 0.088118 0.033058
vt 0.180300 0.033058
vt 0.180275 0.646649
vt 0.382276 0.654406
vt 0.382275 0.072965
vt 0.474453 0.072965
vt 0.474453 0.654406
vt 0.224208 0.035187
vt 0.343242 0.070238
vt 0.342091 0.071134
vt 0.224208 0.035187
vt 0.341062 0.654403
vt 0.222004 0.647651
vt 0.222004 0.647650
vt 0.340333 0.653229
vt 0.211591 0.640999
vt 0.211616 0.039887
vt 0.212812 0.040651
vt 0.212787 0.640414
vt 0.224183 0.638502
vt 0.224208 0.044978
vt 0.338407 0.079696
vt 0.338380 0.643889
vt 0.350978 0.078220
vt 0.350966 0.647966
vt 0.349771 0.647237
vt 0.349785 0.078769
vt 0.929962 0.976007
vt 0.929962 0.651161
vt 0.944198 0.630063
vt 0.944198 0.971901
vt 0.217815 0.986747
vt 0.217815 0.986747
vt 0.221038 0.986184
vt 0.217815 0.921332
vt 0.221038 0.921894
vt 0.149889 0.924456
vt 0.149342 0.921137
vt 0.149342 0.921137
vt 0.229947 0.710701
vt 0.229947 0.710701
vt 0.226724 0.711264
vt 0.078740 0.924456
vt 0.078740 0.924456
vt 0.078194 0.921137
vt 0.160735 0.921332
vt 0.160735 0.921332
vt 0.157512 0.921894
vt 0.287027 0.776116
vt 0.290250 0.775554
vt 0.290250 0.775554
vt 0.015214 0.983234
vt 0.015214 0.983234
vt 0.015761 0.986553
vt 0.089586 0.905939
vt 0.086363 0.902838
vt 0.075517 0.779172
vt 0.078740 0.780262
vt 0.184885 0.855269
vt 0.184885 0.855269
vt 0.186453 0.851394
vt 0.089586 0.718049
vt 0.089586 0.718049
vt 0.086363 0.719140
vt 0.149889 0.902838
vt 0.146666 0.905939
vt 0.018437 0.779172
vt 0.018437 0.779172
vt 0.015214 0.780262
vt 0.146666 0.844816
vt 0.149889 0.847917
vt 0.191728 0.720778
vt 0.191728 0.720778
vt 0.190161 0.719217
vt 0.178453 0.678509
vt 0.181050 0.673819
vt 0.088118 0.028879
vt 0.088118 0.028463
vt 0.064675 0.033494
vt 0.497895 0.654804
vt 0.474453 0.659000
vt 0.448792 0.055222
vt 0.448476 0.055129
vt 0.464744 0.051592
vt 0.208795 0.651209
vt 0.203718 0.646649
vt 0.217064 0.644712
vt 0.218519 0.644000
vt 0.220660 0.637883
vt 0.218519 0.644000
vt 0.180300 0.028463
vt 0.203743 0.033873
vt 0.203743 0.039299
vt 0.224554 0.040466
vt 0.220195 0.037687
vt 0.345359 0.647752
vt 0.342991 0.650425
vt 0.338725 0.648523
vt 0.345831 0.648513
vt 0.347564 0.657791
vt 0.345089 0.659262
vt 0.343720 0.651600
vt 0.371949 0.065325
vt 0.349887 0.067150
vt 0.345045 0.065720
vt 0.345287 0.078760
vt 0.338753 0.075184
vt 0.340267 0.075644
vt 0.149889 0.983234
vt 0.149342 0.986553
vt 0.086909 0.986553
vt 0.086363 0.983234
vt 0.086363 0.924456
vt 0.086909 0.921137
vt 0.229947 0.776116
vt 0.287027 0.710701
vt 0.290250 0.711264
vt 0.078740 0.983234
vt 0.015214 0.924456
vt 0.015761 0.921137
vt 0.160735 0.986747
vt 0.157122 0.903405
vt 0.155554 0.904966
vt 0.155554 0.772788
vt 0.157122 0.768914
vt 0.184885 0.720778
vt 0.186453 0.719217
vt 0.146666 0.718049
vt 0.149889 0.719140
vt 0.149889 0.843726
vt 0.219491 0.768914
vt 0.221059 0.772789
vt 0.221059 0.904966
vt 0.497895 0.072567
vt 0.307188 0.685805
vt 0.336508 0.013720
vt 0.064654 0.646213
vt 0.342911 0.650297
vt 0.343384 0.651058
vt 0.218544 0.037922
vt 0.218544 0.037922
vt 0.344265 0.074329
vt 0.343520 0.074910
vt 0.342160 0.663932
vt 0.316835 0.681515
vt 0.180275 0.651244
vt 0.088096 0.651244
vt 0.088118 0.028463
vt 0.448476 0.055129
vt 0.288333 0.924651
vt 0.288333 0.983428
vt 0.231815 0.983428
vt 0.231815 0.924651
vt 0.064654 0.651244
vt 0.064675 0.028463
vt 0.203744 0.028464
vt 0.203717 0.651244
vn -0.9877 -0.1564 0.0000
vn 0.0000 -0.0000 1.0000
vn -0.1564 -0.9877 -0.0000
vn -0.1564 0.9877 0.0000
vn 0.0000 0.0000 -1.0000
vn 0.9877 0.1564 0.0000
vn -0.9877 0.1564 0.0000
vn 0.9959 0.0904 0.0000
vn 0.1564 0.9877 0.0000
vn 0.9877 -0.1564 0.0000
vn -0.9959 0.0904 0.0000
vn 0.0000 -1.0000 0.0000
vn 0.0000 1.0000 0.0000
vn -0.2853 0.0269 -0.9581
vn 0.2853 0.0269 -0.9581
vn 0.0000 -0.3039 -0.9527
vn 0.0000 0.3039 -0.9527
vn -0.4799 -0.6606 -0.5774
vn -0.6606 0.4799 -0.5773
vn 0.6606 -0.4799 -0.5773
vn 0.4799 0.6606 -0.5774
vn -0.4799 -0.6606 0.5774
vn -0.6606 0.4799 0.5773
vn 0.6606 -0.4799 0.5773
vn 0.4799 0.6606 0.5774
vn -0.6606 -0.4799 -0.5774
vn -0.4799 0.6606 -0.5773
vn 0.4799 -0.6606 -0.5774
vn 0.6606 0.4799 -0.5774
vn -0.6606 -0.4799 0.5774
vn -0.4799 0.6606 0.5773
vn 0.4799 -0.6606 0.5774
vn 0.6606 0.4799 0.5774
vn 0.5923 -0.5410 0.5971
vn -0.5923 -0.5410 0.5971
vn 0.5577 0.6106 0.5623
vn -0.5577 0.6106 0.5623
vn 0.4652 -0.3868 -0.7962
vn 0.1339 -0.1068 -0.9852
vn -0.4652 -0.3868 -0.7962
vn -0.1339 -0.1068 -0.9852
vn 0.1080 0.1276 -0.9859
vn 0.4276 0.4908 -0.7591
vn -0.4276 0.4908 -0.7591
vn -0.1080 0.1276 -0.9859
vn 0.1106 -0.6984 -0.7071
vn -0.6984 -0.1106 -0.7071
vn -0.1106 0.6984 -0.7071
vn 0.6984 0.1106 -0.7071
vn 0.8090 -0.5878 0.0000
vn 0.5878 0.8090 0.0000
vn 0.6984 0.1106 0.7071
vn 0.1106 -0.6984 0.7071
vn -0.1106 0.6984 0.7071
vn -0.6984 -0.1106 0.7071
vn -0.5878 -0.8090 -0.0000
vn -0.8090 0.5878 -0.0000
vn -0.1106 -0.6984 -0.7071
vn -0.6984 0.1106 -0.7071
vn 0.1106 0.6984 -0.7071
vn 0.6984 -0.1106 -0.7071
vn 0.5878 -0.8090 0.0000
vn 0.8090 0.5878 0.0000
vn 0.6984 -0.1106 0.7071
vn -0.1106 -0.6984 0.7071
vn 0.1106 0.6984 0.7071
vn -0.6984 0.1106 0.7071
vn -0.8090 -0.5878 0.0000
vn -0.5878 0.8090 0.0000
vn -0.0000 0.7071 0.7071
vn 0.7042 0.0639 0.7071
vn -0.7042 0.0639 0.7071
vn -0.0000 -0.7071 0.7071
vn 0.1508 0.1729 -0.9733
vn 0.8058 0.0736 -0.5876
vn 0.1553 -0.1294 -0.9794
vn 0.1560 0.0147 -0.9876
vn 0.0000 -0.8074 -0.5900
vn -0.1553 -0.1294 -0.9794
vn 0.0000 -0.1538 -0.9881
vn -0.8058 0.0736 -0.5876
vn -0.1508 0.1729 -0.9733
vn -0.1560 0.0147 -0.9876
vn 0.0000 0.8074 -0.5900
vn 0.0000 0.1538 -0.9881
vn 0.6744 0.7384 0.0000
vn 0.7384 -0.6744 0.0000
vn -0.7384 -0.6744 0.0000
vn -0.6744 0.7384 0.0000
vn 0.1564 -0.9877 0.0000
usemtl barrier1.001
s off
f 63/95/37 65/96/37 52/97/37 50/98/37
f 69/99/38 71/100/38 66/101/38 62/102/38
f 79/103/39 91/104/39 85/105/39 73/106/39
f 70/107/40 58/108/40 53/109/40 64/110/40
f 51/111/41 54/112/41 60/113/41 56/114/41
f 57/115/42 59/116/42 72/117/42 68/118/42
f 87/119/43 89/120/43 76/121/43 74/122/43
f 93/123/38 95/124/38 90/125/38 86/126/38
f 128/127/44 105/128/44 97/129/44 109/130/44
f 94/131/45 82/132/45 77/133/45 88/134/45
f 75/135/41 78/136/41 84/137/41 80/138/41
f 81/139/46 83/140/46 96/141/46 92/142/46
f 107/143/47 130/144/47 117/145/47 100/146/47
f 99/147/48 101/148/48 116/149/48 110/150/48
f 127/151/49 131/152/49 106/153/49 103/154/49
f 118/155/50 133/156/50 136/157/50 120/158/50
f 129/159/51 112/160/51 115/161/51 124/162/51
f 111/163/52 119/164/52 122/165/52 113/166/52
f 114/167/41 121/168/41 135/169/41 125/170/41
f 132/171/53 126/172/53 123/173/53 134/174/53
f 104/175/38 108/176/38 102/177/38 98/178/38
f 49/179/54 50/180/54 51/181/54
f 52/97/55 53/182/55 54/183/55
f 55/184/56 56/185/56 57/186/56
f 58/187/57 59/188/57 60/189/57
f 61/190/58 62/191/58 63/192/58
f 64/193/59 65/194/59 66/195/59
f 67/196/60 68/197/60 69/198/60
f 70/199/61 71/200/61 72/201/61
f 73/106/62 74/202/62 75/203/62
f 76/121/63 77/204/63 78/205/63
f 79/206/64 80/207/64 81/208/64
f 82/209/65 83/210/65 84/211/65
f 85/105/66 86/212/66 87/213/66
f 88/214/67 89/215/67 90/216/67
f 91/104/68 92/217/68 93/218/68
f 94/219/69 95/220/69 96/221/69
f 97/129/70 98/222/70 99/223/70
f 100/224/71 101/225/71 102/226/71
f 103/154/72 104/227/72 105/228/72
f 106/229/73 107/230/73 108/231/73
f 109/232/74 110/233/74 111/234/74 112/235/74
f 113/166/75 114/236/75 115/237/75
f 116/149/76 117/238/76 118/239/76 119/240/76
f 120/158/77 121/241/77 122/242/77
f 123/243/78 124/244/78 125/245/78
f 126/246/79 127/247/79 128/248/79 129/249/79
f 130/144/80 131/250/80 132/251/80 133/252/80
f 134/253/81 135/254/81 136/255/81
f 55/184/82 49/256/82 51/111/82 56/114/82
f 50/257/83 52/258/83 54/112/83 51/111/83
f 53/259/84 58/260/84 60/113/84 54/112/84
f 59/261/85 57/186/85 56/114/85 60/113/85
f 67/196/86 55/262/86 57/115/86 68/118/86
f 58/187/87 70/263/87 72/117/87 59/116/87
f 71/264/88 69/198/88 68/118/88 72/117/88
f 61/190/89 67/265/89 69/99/89 62/102/89
f 70/199/90 64/266/90 66/101/90 71/100/90
f 65/267/91 63/192/91 62/102/91 66/101/91
f 49/179/92 61/268/92 63/95/92 50/98/92
f 64/193/93 53/182/93 52/97/93 65/96/93
f 79/206/94 73/269/94 75/135/94 80/138/94
f 74/270/95 76/271/95 78/136/95 75/135/95
f 77/272/96 82/273/96 84/137/96 78/136/96
f 83/274/97 81/208/97 80/138/97 84/137/97
f 91/104/98 79/103/98 81/139/98 92/142/98
f 82/209/99 94/275/99 96/141/99 83/140/99
f 95/276/100 93/277/100 92/142/100 96/141/100
f 85/105/101 91/104/101 93/218/101 86/212/101
f 94/219/102 88/278/102 90/125/102 95/124/102
f 89/279/103 87/280/103 86/126/103 90/125/103
f 73/106/104 85/105/104 87/213/104 74/202/104
f 88/134/105 77/133/105 76/121/105 89/120/105
f 108/281/106 104/227/106 103/154/106 106/153/106
f 97/129/107 105/128/107 104/282/107 98/222/107
f 107/143/108 100/146/108 102/283/108 108/231/108
f 101/148/109 99/147/109 98/284/109 102/226/109
f 123/285/110 126/286/110 129/159/110 124/162/110
f 128/127/111 109/130/111 112/160/111 129/159/111
f 111/163/112 113/166/112 115/237/112 112/235/112
f 114/167/113 125/170/113 124/162/113 115/161/113
f 110/150/114 116/149/114 119/164/114 111/163/114
f 118/287/115 120/288/115 122/165/115 119/164/115
f 121/168/116 114/167/116 113/166/116 122/165/116
f 117/145/117 130/144/117 133/156/117 118/155/117
f 132/289/118 134/290/118 136/157/118 133/156/118
f 135/169/119 121/168/119 120/158/119 136/157/119
f 131/152/120 127/151/120 126/172/120 132/171/120
f 125/170/121 135/169/121 134/174/121 123/173/121
f 127/291/122 103/292/122 105/128/122 128/127/122
f 99/147/123 110/150/123 109/293/123 97/294/123
f 100/295/124 117/238/124 116/149/124 101/148/124
f 106/296/125 131/250/125 130/144/125 107/143/125
f 55/297/126 67/298/126 61/299/126 49/300/126
usemtl shadow
f 45/301/48 46/302/48 48/303/48 47/304/48
